<?xml version="1.0" encoding="UTF-8" standalone="no"?>
<!-- Generator: Adobe Illustrator 21.0.0, SVG Export Plug-In . SVG Version: 6.00 Build 0)  -->

<svg
   xmlns:dc="http://purl.org/dc/elements/1.1/"
   xmlns:cc="http://creativecommons.org/ns#"
   xmlns:rdf="http://www.w3.org/1999/02/22-rdf-syntax-ns#"
   xmlns:svg="http://www.w3.org/2000/svg"
   xmlns="http://www.w3.org/2000/svg"
   xmlns:sodipodi="http://sodipodi.sourceforge.net/DTD/sodipodi-0.dtd"
   xmlns:inkscape="http://www.inkscape.org/namespaces/inkscape"
   version="1.1"
   id="Capa_1"
   x="0px"
   y="0px"
   viewBox="0 0 752.2 116.8"
   style="enable-background:new 0 0 752.2 116.8;"
   xml:space="preserve"
   sodipodi:docname="LogoTramites_sa.svg"
   inkscape:version="0.92.1 r15371"><metadata
     id="metadata149"><rdf:RDF><cc:Work
         rdf:about=""><dc:format>image/svg+xml</dc:format><dc:type
           rdf:resource="http://purl.org/dc/dcmitype/StillImage" /><dc:title>LogoTramites</dc:title></cc:Work></rdf:RDF></metadata><defs
     id="defs147" /><sodipodi:namedview
     pagecolor="#ffffff"
     bordercolor="#666666"
     borderopacity="1"
     objecttolerance="10"
     gridtolerance="10"
     guidetolerance="10"
     inkscape:pageopacity="0"
     inkscape:pageshadow="2"
     inkscape:window-width="1523"
     inkscape:window-height="683"
     id="namedview145"
     showgrid="false"
     inkscape:zoom="0.35627953"
     inkscape:cx="472.18302"
     inkscape:cy="364.47198"
     inkscape:window-x="0"
     inkscape:window-y="0"
     inkscape:window-maximized="0"
     inkscape:current-layer="Capa_1" /><style
     type="text/css"
     id="style2">
	.st0{fill:#FFFFFF;}
	.st1{fill:#E92682;}
	.st2{fill:#EB4D82;}
	.st3{fill:#221F1F;}
	.st4{fill:#EA2381;}
</style><path
     class="st0"
     d="m 21.294682,2.6 h 91.399998 c 5.7,0 10.3,4.6 10.3,10.3 v 91.5 c 0,5.7 -4.6,10.3 -10.3,10.3 H 21.194682 c -5.7,0 -10.3,-4.6 -10.3,-10.3 V 12.9 c 0,-5.7 4.6,-10.3 10.4,-10.3 z"
     id="path4"
     inkscape:connector-curvature="0"
     style="fill:#ffffff" /><path
     class="st1"
     d="M 112.69468,116.8 H 21.194682 c -6.8,0 -12.4000003,-5.6 -12.4000003,-12.4 V 12.9 c 0,-6.8 5.6000003,-12.4 12.4000003,-12.4 h 91.499998 c 6.8,0 12.4,5.6 12.4,12.4 v 91.5 c 0,6.8 -5.5,12.4 -12.4,12.4 z M 21.294682,4.6 c -4.6,0 -8.3,3.7 -8.3,8.3 v 91.5 c 0,4.6 3.7,8.3 8.3,8.3 h 91.399998 c 4.6,0 8.3,-3.7 8.3,-8.3 V 12.9 c 0,-4.6 -3.7,-8.3 -8.3,-8.3 z"
     id="path6"
     inkscape:connector-curvature="0"
     style="fill:#e92682" /><path
     class="st2"
     d="m 66.994682,11 c 18.7,0 33.799998,15.2 33.799998,33.8 0,18.6 -15.099998,33.9 -33.799998,33.9 -18.7,0 -33.8,-15.2 -33.8,-33.8 v 0 c -0.1,-18.7 15.1,-33.9 33.8,-33.9 0,0 0,0 0,0 z"
     id="path8"
     inkscape:connector-curvature="0"
     style="fill:#eb4d82" /><title
     id="title10">LogoTramites</title><path
     class="st0"
     d="m 66.994682,14.2 c 16.9,0 30.7,13.7 30.7,30.6 0,16.9 -13.7,30.6 -30.7,30.6 -17,0 -30.6,-13.7 -30.6,-30.6 0,0 0,0 0,0 -0.1,-16.9 13.6,-30.6 30.6,-30.6 0,0 0,0 0,0"
     id="path96"
     inkscape:connector-curvature="0"
     style="fill:#ffffff" /><path
     class="st3"
     d="m 50.394682,105.2 v 0 c 0,-0.6 0.5,-1.1 1.1,-1.2 0,0 0,0 0.1,0 0.3,0 0.6,0.1 0.9,0.3 l -0.2,0.3 c -0.2,-0.2 -0.4,-0.3 -0.6,-0.3 -0.4,0 -0.7,0.3 -0.7,0.8 0,0 0,0 0,0 v 0 c 0,0.4 0.3,0.8 0.7,0.8 0,0 0,0 0,0 0.2,0 0.5,-0.1 0.6,-0.3 l 0.2,0.3 c -0.2,0.3 -0.6,0.4 -0.9,0.4 -0.7,0 -1.2,-0.5 -1.2,-1.1 0,0 0,0 0,0"
     id="path98"
     inkscape:connector-curvature="0"
     style="fill:#221f1f" /><rect
     x="52.794689"
     y="104"
     class="st3"
     width="0.40000001"
     height="2.2"
     id="rect100"
     style="fill:#221f1f" /><path
     class="st3"
     d="M 53.794682,105.3 V 104 h 0.4 v 1.3 c 0,0.4 0.2,0.6 0.6,0.6 0.4,0 0.6,-0.2 0.6,-0.6 V 104 h 0.4 v 1.3 c 0.1,0.5 -0.3,0.9 -0.8,1 -0.1,0 -0.2,0 -0.2,0 -0.5,0.1 -0.9,-0.3 -1,-0.7 -0.1,-0.2 -0.1,-0.2 0,-0.3"
     id="path102"
     inkscape:connector-curvature="0"
     style="fill:#221f1f" /><path
     class="st3"
     d="m 56.294682,104 h 0.8 c 0.6,0 1.1,0.4 1.2,1 0,0 0,0.1 0,0.1 v 0 c 0,0.6 -0.5,1.1 -1.1,1.1 0,0 0,0 -0.1,0 h -0.8 z m 0.8,1.9 c 0.4,0 0.8,-0.3 0.8,-0.7 0,0 0,-0.1 0,-0.1 v 0 c 0,-0.4 -0.3,-0.7 -0.7,-0.8 0,0 -0.1,0 -0.1,0 h -0.4 v 1.5 z"
     id="path104"
     inkscape:connector-curvature="0"
     style="fill:#221f1f" /><path
     class="st3"
     d="m 59.394682,104 h 0.4 l 1,2.3 h -0.4 l -0.2,-0.5 h -1.1 l -0.2,0.5 h -0.4 z m 0.6,1.4 -0.4,-0.9 -0.4,0.9 z"
     id="path106"
     inkscape:connector-curvature="0"
     style="fill:#221f1f" /><path
     class="st3"
     d="m 61.094682,104 h 0.8 c 0.6,0 1.1,0.4 1.2,1 0,0 0,0.1 0,0.1 v 0 c 0,0.6 -0.5,1.1 -1.1,1.1 0,0 0,0 -0.1,0 h -0.8 z m 0.9,1.9 c 0.4,0 0.8,-0.3 0.8,-0.7 0,0 0,-0.1 0,-0.1 v 0 c 0,-0.4 -0.3,-0.7 -0.7,-0.8 0,0 -0.1,0 -0.1,0 h -0.4 v 1.5 z"
     id="path108"
     inkscape:connector-curvature="0"
     style="fill:#221f1f" /><path
     class="st3"
     d="m 64.594682,104 h 0.8 c 0.6,0 1.1,0.4 1.2,1 0,0 0,0.1 0,0.1 v 0 c 0,0.6 -0.5,1.1 -1.1,1.1 0,0 0,0 -0.1,0 h -0.8 z m 0.8,1.9 c 0.4,0 0.8,-0.3 0.8,-0.7 0,0 0,-0.1 0,-0.1 v 0 c 0,-0.4 -0.3,-0.7 -0.7,-0.8 0,0 -0.1,0 -0.1,0 h -0.4 v 1.5 z"
     id="path110"
     inkscape:connector-curvature="0"
     style="fill:#221f1f" /><polygon
     class="st3"
     points="195.1,104 195.1,104.4 193.8,104.4 193.8,105 194.9,105 194.9,105.3 193.8,105.3 193.8,105.9 195.1,105.9 195.1,106.3 193.4,106.3 193.4,104 "
     id="polygon112"
     transform="translate(-126.30532)"
     style="fill:#221f1f" /><polygon
     class="st3"
     points="196.9,104 197.6,105.1 198.3,104 198.7,104 198.7,106.3 198.3,106.3 198.3,104.7 197.6,105.7 197.6,105.7 196.9,104.7 196.9,106.3 196.5,106.3 196.5,104 "
     id="polygon114"
     transform="translate(-126.30532)"
     style="fill:#221f1f" /><path
     class="st3"
     d="m 72.994682,104 h 1.7 v 0.3 h -1.3 v 0.6 h 1.1 v 0.3 h -1.1 v 0.6 h 1.3 v 0.3 h -1.7 z m 0.9,-0.7 0.4,0.2 -0.4,0.4 h -0.3 z"
     id="path116"
     inkscape:connector-curvature="0"
     style="fill:#221f1f" /><polygon
     class="st3"
     points="201.3,104 201.7,104 202.3,104.9 202.8,104 203.3,104 202.5,105.1 203.3,106.3 202.9,106.3 202.3,105.4 201.7,106.3 201.2,106.3 202.1,105.1 "
     id="polygon118"
     transform="translate(-126.30532)"
     style="fill:#221f1f" /><rect
     x="77.494682"
     y="104"
     class="st3"
     width="0.40000001"
     height="2.2"
     id="rect120"
     style="fill:#221f1f" /><path
     class="st3"
     d="m 78.294682,105.2 v 0 c 0,-0.6 0.5,-1.1 1.1,-1.2 0,0 0,0 0.1,0 0.3,0 0.6,0.1 0.9,0.3 l -0.2,0.3 c -0.2,-0.2 -0.4,-0.3 -0.6,-0.3 -0.4,0 -0.7,0.3 -0.7,0.8 0,0 0,0 0,0 v 0 c 0,0.4 0.3,0.8 0.7,0.8 0,0 0,0 0,0 0.2,0 0.5,-0.1 0.6,-0.3 l 0.2,0.3 c -0.2,0.3 -0.6,0.4 -0.9,0.4 -0.6,0 -1.1,-0.5 -1.2,-1.1 0,0 0,0 0,0"
     id="path122"
     inkscape:connector-curvature="0"
     style="fill:#221f1f" /><path
     class="st3"
     d="m 80.594682,105.2 v 0 c 0,-0.6 0.5,-1.2 1.2,-1.2 0.6,0 1.2,0.5 1.2,1.2 v 0 c 0,0.6 -0.5,1.2 -1.1,1.2 0,0 0,0 0,0 -0.7,-0.1 -1.2,-0.6 -1.3,-1.2 0,0 0,0 0,0 m 2,0 v 0 c 0,-0.4 -0.3,-0.8 -0.7,-0.8 0,0 0,0 0,0 -0.4,0 -0.8,0.3 -0.8,0.8 0,0 0,0 0,0 v 0 c 0,0.4 0.3,0.8 0.7,0.8 0,0 0,0 0,0 0.4,0 0.8,-0.4 0.8,-0.8 0,0 0,0 0,0 z"
     id="path124"
     inkscape:connector-curvature="0"
     style="fill:#221f1f" /><path
     class="st3"
     d="m 40.994682,100.8 c -2.1,0 -4.1,-0.8 -5.6,-2.4 -1.5,-1.6 -2.3,-3.6 -2.2,-5.8 v 0 c -0.1,-4.4 3.3,-8 7.7,-8.1 0.1,0 0.1,0 0.2,0 2.3,-0.1 4.5,0.9 6.1,2.5 l 0.1,0.1 -1,1 -0.1,-0.1 c -1.3,-1.4 -3.2,-2.3 -5.1,-2.2 -1.7,0 -3.4,0.7 -4.6,2 -1.2,1.3 -1.9,3 -1.8,4.8 v 0 c -0.1,3.6 2.7,6.7 6.3,6.8 0,0 0.1,0 0.1,0 2,0 3.9,-0.9 5.2,-2.4 l 0.1,-0.1 1,0.9 -0.1,0.1 c -1.6,2 -3.9,3 -6.3,2.9"
     id="path126"
     inkscape:connector-curvature="0"
     style="fill:#221f1f" /><path
     class="st3"
     d="m 55.694682,100.6 h -5.3 V 84.8 h 5.3 c 4.9,0 8.4,3.3 8.4,7.9 v 0 c 0,2.1 -0.8,4.2 -2.4,5.7 -1.6,1.4 -3.8,2.2 -6,2.2 m -3.9,-1.3 h 3.9 c 1.9,0.1 3.7,-0.6 5.1,-1.9 1.2,-1.2 1.9,-2.9 1.9,-4.6 v 0 c 0,-1.8 -0.7,-3.4 -1.9,-4.7 -1.3,-1.3 -3.1,-2 -5,-1.9 h -3.9 v 13.1 z"
     id="path128"
     inkscape:connector-curvature="0"
     style="fill:#221f1f" /><polygon
     class="st3"
     points="197.2,84.8 201.4,91.5 205.5,84.8 209.3,84.8 209.3,100.6 205.8,100.6 205.8,90.3 201.4,97 201.3,97 196.9,90.3 196.9,100.6 193.4,100.6 193.4,84.8 "
     id="polygon130"
     transform="translate(-126.30532)"
     style="fill:#221f1f" /><polygon
     class="st3"
     points="212.2,84.8 216.3,84.8 219.6,89.9 222.9,84.8 226.9,84.8 221.6,92.5 227.1,100.6 223.1,100.6 219.5,95.2 215.9,100.6 212,100.6 217.5,92.6 "
     id="polygon132"
     transform="translate(-126.30532)"
     style="fill:#221f1f" /><path
     class="st0"
     d="m 600.29468,43.3 -14,-20.6 h 10.8 l 8.8,13.6 8.9,-13.6 h 10.5 l -14,20.5 14.6,21.5 h -10.8 l -9.4,-14.5 -9.5,14.4 h -10.5 z m -61,-20.7 h 10 l 11,17.8 11,-17.8 h 10 v 42 h -9.2 V 37.2 l -11.8,18 h -0.2 l -11.7,-17.8 v 27.3 h -9.1 V 22.6 Z m -124.6,42.6 c -3.1,0 -6.3,-0.5 -9.2,-1.7 -3,-1.2 -5.7,-2.9 -8,-5.1 l 3,-3.5 c 2,1.8 4.2,3.4 6.7,4.5 2.4,1 5.1,1.6 7.8,1.5 2.4,0.1 4.8,-0.6 6.8,-2 1.6,-1.2 2.6,-3.1 2.5,-5.1 v -0.1 c 0,-0.9 -0.2,-1.8 -0.5,-2.6 -0.4,-0.8 -1,-1.6 -1.7,-2.1 -1,-0.8 -2.2,-1.4 -3.4,-1.8 -1.8,-0.6 -3.6,-1.1 -5.4,-1.5 -2.1,-0.4 -4.2,-1 -6.3,-1.8 -1.6,-0.6 -3.1,-1.4 -4.4,-2.5 -1.1,-0.9 -2,-2.1 -2.6,-3.4 -0.6,-1.4 -0.9,-3 -0.8,-4.5 v -0.1 c 0,-1.6 0.3,-3.1 1,-4.6 0.7,-1.4 1.7,-2.6 2.9,-3.6 1.3,-1.1 2.8,-1.9 4.4,-2.4 1.8,-0.6 3.6,-0.9 5.5,-0.9 2.7,-0.1 5.5,0.4 8.1,1.3 2.4,0.9 4.7,2.2 6.7,3.9 l -2.8,3.7 c -1.8,-1.5 -3.8,-2.7 -5.9,-3.5 -2,-0.7 -4.1,-1.1 -6.2,-1.1 -2.3,-0.1 -4.7,0.6 -6.5,2 -1.5,1.1 -2.4,2.9 -2.4,4.8 v 0.1 c 0,0.9 0.1,1.8 0.5,2.7 0.4,0.8 1,1.6 1.8,2.1 1.1,0.8 2.2,1.4 3.5,1.8 1.9,0.6 3.8,1.2 5.7,1.5 4.7,1 8.1,2.5 10.4,4.3 2.2,1.9 3.5,4.7 3.3,7.6 v 0.1 c 0,1.7 -0.3,3.4 -1.1,4.9 -0.7,1.5 -1.7,2.7 -3,3.8 -1.3,1.1 -2.9,1.9 -4.5,2.4 -2,0.7 -4,0.9 -5.9,0.9 z m -52.1,-42.6 h 30.4 v 4.3 h -25.6 v 14.4 h 22.9 v 4.3 h -22.9 v 14.7 h 25.9 v 4.3 h -30.7 v -42 z m -25.2,4.4 h -14.1 v -4.4 h 33 V 27 h -14.1 v 37.6 h -4.8 V 27 Z m -25.6,-4.4 h 4.7 v 42 h -4.7 z m -50,0 h 4.9 l 15.3,22.9 15.3,-22.9 h 4.8 v 42 h -4.7 v -34 l -15.3,22.5 h -0.2 l -15.3,-22.5 v 34 h -4.6 z m -29.3,-0.3 h 4.4 l 19.1,42.3 h -5.1 l -4.9,-11.1 h -22.8 l -5,11.1 h -4.9 z m 11.8,27 -9.6,-21.5 -9.6,21.4 z m -5.6,-39.1 4.8,2.2 -6.8,6.5 h -3.7 z m -62.5,12.4 h 18.1 c 2.4,0 4.7,0.3 6.9,1.1 1.9,0.7 3.6,1.7 5,3.1 1,1 1.9,2.3 2.4,3.7 0.6,1.5 0.9,3 0.8,4.6 v 0.1 c 0,1.6 -0.3,3.2 -0.8,4.7 -0.5,1.3 -1.3,2.6 -2.4,3.6 -1.1,1 -2.3,1.9 -3.6,2.5 -1.4,0.7 -3,1.1 -4.6,1.4 l 12.9,17.2 h -5.8 l -12.2,-16.3 h -12 v 16.3 h -4.7 z m 17.7,21.4 c 1.5,0 2.9,-0.2 4.3,-0.6 1.2,-0.4 2.4,-0.9 3.4,-1.7 2,-1.5 3.1,-3.8 3.1,-6.3 v -0.1 c 0.1,-2.4 -0.9,-4.6 -2.8,-6.1 -1.9,-1.5 -4.6,-2.2 -8,-2.2 h -13 v 17 z m -42.9,-17 h -14.1 v -4.4 h 33 V 27 h -14.1 v 37.6 h -4.8 z"
     id="path134"
     inkscape:connector-curvature="0"
     style="fill:#ffffff" /><path
     class="st3"
     d="m 495.89468,22.6 h 14.6 c 3.1,0 6.1,0.5 9,1.6 2.6,1 5,2.5 7.1,4.4 2,1.9 3.5,4.1 4.6,6.6 1.1,2.6 1.6,5.4 1.6,8.2 v 0.1 c 0,2.8 -0.5,5.7 -1.6,8.3 -1,2.5 -2.6,4.8 -4.6,6.7 -2,1.9 -4.4,3.4 -7,4.4 -2.9,1.1 -5.9,1.7 -9,1.6 h -14.6 V 22.6 Z m 14.6,37.7 c 2.5,0 4.9,-0.4 7.2,-1.3 2,-0.8 3.9,-2 5.5,-3.5 1.5,-1.5 2.7,-3.3 3.5,-5.2 0.8,-2.1 1.2,-4.3 1.2,-6.5 v -0.1 c 0,-2.2 -0.4,-4.4 -1.2,-6.5 -0.8,-2 -2,-3.8 -3.5,-5.3 -1.6,-1.5 -3.4,-2.7 -5.5,-3.5 -2.3,-0.9 -4.7,-1.3 -7.2,-1.3 h -9.8 v 33.2 z m -37.2,5.1 c -5.7,0.1 -11.1,-2.2 -15.1,-6.3 -1.9,-2 -3.4,-4.3 -4.4,-6.9 -1.1,-2.7 -1.6,-5.6 -1.6,-8.5 v -0.1 c 0,-2.9 0.5,-5.7 1.6,-8.4 1,-2.6 2.5,-4.9 4.4,-6.9 1.9,-2 4.2,-3.6 6.7,-4.7 2.7,-1.2 5.6,-1.7 8.5,-1.7 1.7,0 3.5,0.1 5.2,0.5 1.5,0.3 2.9,0.8 4.3,1.4 1.3,0.6 2.5,1.3 3.7,2.1 1.1,0.8 2.2,1.7 3.2,2.7 l -3.1,3.4 c -1.7,-1.6 -3.7,-3 -5.8,-4.1 -6.4,-3.2 -14.1,-1.8 -19,3.4 -1.5,1.6 -2.6,3.5 -3.4,5.5 -0.8,2.2 -1.2,4.4 -1.2,6.8 v 0.1 c 0,2.3 0.4,4.6 1.2,6.8 0.8,2 1.9,3.9 3.4,5.5 1.5,1.6 3.2,2.8 5.2,3.7 2,0.9 4.2,1.4 6.4,1.4 2.6,0.1 5.1,-0.5 7.4,-1.6 2.2,-1.2 4.3,-2.7 6.1,-4.5 l 3.1,3.1 c -1.1,1.1 -2.2,2.1 -3.4,3 -1.2,0.9 -2.5,1.7 -3.8,2.3 -1.4,0.7 -2.9,1.2 -4.4,1.5 -1.6,0.3 -3.4,0.5 -5.2,0.5 z"
     id="path136"
     inkscape:connector-curvature="0"
     style="fill:#221f1f" /><path
     class="st0"
     d="m 552.19468,103.2 c -1,0 -1.9,-0.2 -2.8,-0.6 -1.7,-0.7 -3,-2.1 -3.7,-3.8 -0.4,-0.9 -0.5,-1.8 -0.5,-2.7 V 96 c 0,-1.9 0.7,-3.7 2,-5 0.6,-0.7 1.4,-1.2 2.2,-1.6 0.9,-0.4 1.8,-0.6 2.8,-0.6 0.6,0 1.2,0.1 1.8,0.2 0.5,0.1 1,0.3 1.5,0.5 0.4,0.2 0.8,0.5 1.2,0.8 0.4,0.3 0.7,0.6 1,1 l -1.3,1.4 c -0.5,-0.6 -1.1,-1 -1.8,-1.4 -0.7,-0.4 -1.5,-0.6 -2.4,-0.6 -0.7,0 -1.3,0.1 -1.9,0.4 -0.6,0.3 -1.1,0.6 -1.5,1.1 -0.4,0.5 -0.8,1.1 -1,1.7 -0.3,0.7 -0.4,1.4 -0.4,2.1 v 0 c 0,0.7 0.1,1.4 0.4,2.1 0.2,0.6 0.6,1.2 1.1,1.7 0.9,1 2.2,1.6 3.6,1.6 0.8,0 1.6,-0.2 2.3,-0.6 0.7,-0.4 1.3,-0.9 1.8,-1.4 l 1.3,1.2 c -0.7,0.8 -1.5,1.4 -2.3,1.9 -1.1,0.5 -2.2,0.7 -3.4,0.7 m -13,-19.3 h 2.3 v 2.2 h -2.3 z m 0.1,5.3 h 2 v 13.7 h -2 z m -12,14 c -0.8,0 -1.6,-0.2 -2.4,-0.5 -0.8,-0.3 -1.5,-0.8 -2.1,-1.4 -0.6,-0.6 -1.1,-1.4 -1.5,-2.2 -0.4,-1 -0.6,-2 -0.5,-3 V 96 c 0,-1 0.2,-2 0.5,-3 0.3,-0.8 0.8,-1.6 1.5,-2.2 0.6,-0.6 1.3,-1.1 2.1,-1.4 0.8,-0.3 1.6,-0.5 2.4,-0.5 0.6,0 1.2,0.1 1.7,0.2 0.5,0.1 1,0.4 1.4,0.6 0.4,0.3 0.8,0.6 1.2,0.9 0.3,0.3 0.6,0.7 0.9,1.1 v -8.2 h 2 v 19.3 h -2 V 100 c -0.3,0.4 -0.6,0.8 -0.9,1.2 -0.3,0.4 -0.7,0.7 -1.2,1 -0.4,0.3 -0.9,0.5 -1.4,0.7 -0.5,0.2 -1.1,0.3 -1.7,0.3 z m 0.4,-1.9 c 0.6,0 1.3,-0.1 1.8,-0.4 0.6,-0.3 1.1,-0.6 1.6,-1.1 0.5,-0.5 0.9,-1 1.1,-1.7 0.3,-0.7 0.4,-1.4 0.4,-2.2 V 96 c 0,-0.7 -0.1,-1.5 -0.4,-2.2 -0.3,-0.6 -0.6,-1.2 -1.1,-1.7 -0.5,-0.5 -1,-0.8 -1.6,-1.1 -0.6,-0.3 -1.2,-0.4 -1.8,-0.4 -0.6,0 -1.3,0.1 -1.9,0.4 -0.6,0.2 -1.1,0.6 -1.5,1 -0.4,0.5 -0.8,1 -1,1.7 -0.3,0.7 -0.4,1.5 -0.4,2.2 v 0 c 0,0.7 0.1,1.5 0.4,2.2 0.2,0.6 0.6,1.2 1,1.7 0.4,0.5 1,0.8 1.5,1.1 0.6,0.3 1.3,0.4 1.9,0.4 z m -12.9,-12.1 h 2 v 13.7 h -2 z m 2.7,-5.9 2.1,1 -3,2.9 h -1.6 z m -13.6,5.9 h 2 v 3.6 c 0.2,-0.6 0.6,-1.1 0.9,-1.6 0.4,-0.5 0.8,-0.9 1.3,-1.2 0.5,-0.3 1,-0.6 1.6,-0.8 0.6,-0.2 1.2,-0.3 1.8,-0.2 v 2.2 h -0.2 c -0.7,0 -1.4,0.1 -2.1,0.4 -0.7,0.3 -1.2,0.7 -1.7,1.2 -0.5,0.6 -0.9,1.3 -1.2,2 -0.3,0.9 -0.4,1.8 -0.4,2.7 v 5.4 h -2 z m -11.2,14 c -0.8,0 -1.5,-0.1 -2.2,-0.4 -0.6,-0.2 -1.2,-0.6 -1.6,-1.1 -0.4,-0.5 -0.8,-1.1 -1,-1.7 -0.2,-0.7 -0.4,-1.5 -0.4,-2.2 v -8.5 h 2 v 8 c 0,1.1 0.3,2.2 1,3 0.7,0.8 1.7,1.2 2.8,1.1 0.6,0 1.1,-0.1 1.6,-0.3 0.5,-0.2 0.9,-0.5 1.3,-0.9 0.4,-0.4 0.7,-0.9 0.9,-1.4 0.2,-0.6 0.3,-1.1 0.3,-1.7 v -7.8 h 2 V 103 h -2 v -2.4 c -0.5,0.7 -1.1,1.4 -1.8,1.9 -0.9,0.4 -1.9,0.7 -2.9,0.7 z m -15.4,0 c -1.2,0 -2.4,-0.3 -3.5,-0.9 -0.9,-0.6 -1.7,-1.4 -2.2,-2.3 l 1.5,-1.3 c 0.5,0.8 1.1,1.5 1.8,2 0.7,0.5 1.6,0.7 2.4,0.7 1,0 1.9,-0.4 2.6,-1.1 0.7,-0.9 1.1,-2.1 1,-3.3 V 84.3 h 2.1 v 12.4 c 0,1 -0.1,1.9 -0.5,2.9 -0.3,0.7 -0.7,1.4 -1.2,2 -1.1,1 -2.5,1.6 -4,1.6 z m -23.5,0 c -0.6,0 -1.3,-0.1 -1.9,-0.3 -0.6,-0.2 -1.1,-0.4 -1.6,-0.8 -0.5,-0.4 -0.9,-0.8 -1.2,-1.3 -0.3,-0.6 -0.5,-1.2 -0.4,-1.8 v -0.1 c 0,-0.7 0.1,-1.3 0.4,-1.9 0.3,-0.6 0.7,-1 1.2,-1.4 0.6,-0.4 1.2,-0.7 1.8,-0.8 0.8,-0.2 1.6,-0.3 2.4,-0.3 0.8,0 1.5,0 2.3,0.2 0.6,0.1 1.3,0.2 1.9,0.4 v -0.4 c 0.1,-1 -0.3,-2.1 -1.1,-2.8 -0.8,-0.7 -1.9,-1 -3,-0.9 -0.7,0 -1.5,0.1 -2.2,0.3 -0.7,0.2 -1.3,0.4 -1.9,0.7 l -0.6,-1.7 c 0.7,-0.3 1.5,-0.6 2.3,-0.8 0.9,-0.2 1.8,-0.3 2.7,-0.3 1.6,-0.1 3.2,0.4 4.4,1.5 1,1.1 1.5,2.5 1.4,4 v 8.4 h -2 v -2 c -0.5,0.7 -1.2,1.2 -1.9,1.6 -0.9,0.2 -1.9,0.5 -3,0.5 z m 0.4,-1.7 c 0.6,0 1.2,-0.1 1.8,-0.3 0.5,-0.2 1,-0.4 1.4,-0.8 0.4,-0.3 0.8,-0.7 1,-1.2 0.2,-0.5 0.4,-1 0.4,-1.5 v -1.3 c -0.5,-0.1 -1.1,-0.3 -1.8,-0.4 -0.7,-0.1 -1.5,-0.2 -2.2,-0.2 -1,-0.1 -2.1,0.2 -3,0.8 -0.7,0.5 -1,1.2 -1,2 v 0.1 c 0,0.4 0.1,0.8 0.3,1.2 0.2,0.3 0.4,0.6 0.8,0.9 0.3,0.2 0.7,0.4 1.1,0.5 0.4,0.1 0.8,0.2 1.2,0.2 z m -20,0.1 9.1,-10.7 h -8.8 v -1.8 h 11.5 v 1.3 l -9.1,10.7 h 9.1 v 1.7 h -11.8 z m -13.6,-4.7 c 0.1,0.7 0.2,1.3 0.5,1.9 0.3,0.5 0.6,1 1.1,1.4 0.4,0.4 0.9,0.7 1.5,0.9 0.6,0.2 1.1,0.3 1.7,0.3 0.8,0 1.7,-0.2 2.5,-0.5 0.7,-0.4 1.3,-0.8 1.9,-1.4 l 1.3,1.1 c -0.7,0.8 -1.5,1.4 -2.3,1.9 -1,0.5 -2.1,0.7 -3.3,0.7 -0.9,0 -1.8,-0.2 -2.6,-0.5 -0.8,-0.3 -1.6,-0.8 -2.2,-1.4 -0.6,-0.7 -1.1,-1.4 -1.5,-2.3 -0.4,-0.9 -0.6,-1.9 -0.5,-2.9 0,-1 0.2,-1.9 0.5,-2.8 0.3,-0.8 0.8,-1.6 1.4,-2.3 0.6,-0.6 1.3,-1.2 2.1,-1.5 1.7,-0.8 3.6,-0.8 5.3,0 0.8,0.4 1.5,0.9 2,1.6 0.6,0.7 1,1.5 1.2,2.3 0.3,0.9 0.4,1.9 0.4,2.8 v 0.3 c 0,0.1 0,0.3 0,0.4 z m 8.8,-1.7 c -0.1,-0.6 -0.2,-1.2 -0.4,-1.8 -0.2,-0.5 -0.5,-1 -0.9,-1.5 -0.4,-0.4 -0.8,-0.8 -1.3,-1 -0.6,-0.3 -1.2,-0.4 -1.8,-0.4 -0.6,0 -1.1,0.1 -1.6,0.3 -0.5,0.2 -1,0.6 -1.3,1 -0.4,0.4 -0.8,0.9 -1,1.5 -0.3,0.6 -0.4,1.2 -0.5,1.8 z m -16.1,7.9 c -0.5,0 -1,-0.1 -1.5,-0.2 -0.9,-0.3 -1.7,-1 -2,-1.9 -0.2,-0.6 -0.3,-1.2 -0.3,-1.8 V 91 h -1.9 v -1.8 h 1.9 V 85 h 2 v 4.1 h 4.3 V 91 h -4.3 v 8 c -0.1,0.7 0.2,1.3 0.6,1.8 0.5,0.4 1.1,0.5 1.7,0.5 0.7,0 1.4,-0.2 2,-0.5 v 1.7 c -0.4,0.2 -0.7,0.3 -1.1,0.4 -0.5,0.2 -0.9,0.2 -1.4,0.2 z m -15.3,-13.9 h 2 v 3.6 c 0.2,-0.6 0.6,-1.1 0.9,-1.6 0.4,-0.5 0.8,-0.9 1.3,-1.2 0.5,-0.3 1,-0.6 1.6,-0.8 0.6,-0.2 1.2,-0.3 1.8,-0.2 v 2.2 h -0.2 c -0.7,0 -1.4,0.1 -2.1,0.4 -0.7,0.3 -1.2,0.7 -1.7,1.2 -0.5,0.6 -0.9,1.3 -1.2,2 -0.3,0.9 -0.4,1.8 -0.4,2.7 v 5.4 h -2 z m -14.4,7.6 c 0.1,0.7 0.2,1.3 0.5,1.9 0.3,0.5 0.6,1 1.1,1.4 0.4,0.4 0.9,0.7 1.5,0.9 0.6,0.2 1.1,0.3 1.7,0.3 0.8,0 1.7,-0.2 2.5,-0.5 0.7,-0.4 1.3,-0.8 1.9,-1.4 l 1.3,1.1 c -0.7,0.8 -1.5,1.4 -2.3,1.9 -1,0.5 -2.1,0.7 -3.3,0.7 -0.9,0 -1.8,-0.2 -2.6,-0.5 -0.8,-0.3 -1.6,-0.8 -2.2,-1.4 -0.6,-0.6 -1.1,-1.4 -1.5,-2.3 -0.4,-0.9 -0.6,-1.9 -0.5,-2.9 0,-1 0.2,-1.9 0.5,-2.8 0.3,-0.8 0.8,-1.6 1.4,-2.2 0.6,-0.6 1.3,-1.2 2.1,-1.5 1.7,-0.8 3.6,-0.8 5.3,0 0.8,0.4 1.5,0.9 2,1.6 0.6,0.7 1,1.5 1.2,2.3 0.3,0.9 0.4,1.9 0.4,2.8 v 0.3 c 0,0.1 0,0.3 0,0.4 z m 8.8,-1.6 c -0.1,-0.6 -0.2,-1.2 -0.4,-1.8 -0.2,-0.5 -0.5,-1 -0.9,-1.5 -0.4,-0.4 -0.8,-0.8 -1.3,-1 -0.6,-0.3 -1.2,-0.4 -1.8,-0.4 -0.6,0 -1.1,0.1 -1.6,0.3 -0.5,0.2 -1,0.6 -1.4,1 -0.4,0.4 -0.8,0.9 -1,1.5 -0.3,0.6 -0.4,1.2 -0.5,1.8 z m -20.8,8 c -2.5,0 -4.9,-1 -6.6,-2.8 -0.8,-0.9 -1.5,-1.9 -1.9,-3 -0.5,-1.2 -0.7,-2.5 -0.7,-3.7 v -0.1 c 0,-1.3 0.2,-2.5 0.7,-3.7 0.4,-1.1 1.1,-2.2 1.9,-3.1 0.8,-0.9 1.9,-1.6 3,-2.1 1.2,-0.5 2.4,-0.8 3.7,-0.9 0.8,0 1.5,0.1 2.3,0.2 0.6,0.1 1.3,0.3 1.9,0.6 0.6,0.2 1.1,0.6 1.6,0.9 0.5,0.4 1,0.8 1.4,1.2 l -1.4,1.5 c -0.8,-0.7 -1.6,-1.3 -2.5,-1.8 -2.8,-1.4 -6.2,-0.8 -8.4,1.5 -0.7,0.7 -1.2,1.5 -1.5,2.4 -0.4,1 -0.6,2 -0.5,3 v 0.1 c 0,1 0.2,2 0.5,3 0.4,0.9 0.9,1.7 1.5,2.4 0.6,0.7 1.4,1.2 2.3,1.6 0.9,0.4 1.9,0.6 2.8,0.6 1.1,0 2.3,-0.2 3.3,-0.7 1,-0.5 1.9,-1.2 2.7,-2 l 1.4,1.3 c -0.5,0.5 -1,0.9 -1.5,1.3 -0.5,0.4 -1.1,0.7 -1.7,1 -0.6,0.3 -1.3,0.5 -1.9,0.7 -0.8,0.5 -1.5,0.6 -2.4,0.6 z m -30.2,4 c -0.5,0 -1,-0.1 -1.5,-0.2 -0.5,-0.1 -0.9,-0.3 -1.4,-0.5 l 0.7,-1.6 c 0.3,0.2 0.7,0.3 1,0.4 0.4,0.1 0.8,0.1 1.1,0.1 0.6,0 1.1,-0.2 1.6,-0.6 0.6,-0.6 1,-1.3 1.2,-2 l -6.2,-13.6 h 2.2 l 5,11.4 4.4,-11.4 h 2.1 l -5.7,14.1 c -0.4,1.1 -1.1,2.2 -1.9,3 -0.7,0.6 -1.7,0.9 -2.6,0.9 z m -21.3,-4 c -0.6,0 -1.3,-0.1 -1.9,-0.3 -0.6,-0.2 -1.1,-0.4 -1.6,-0.8 -0.5,-0.4 -0.9,-0.8 -1.1,-1.3 -0.3,-0.6 -0.5,-1.2 -0.4,-1.8 v -0.1 c 0,-0.7 0.1,-1.3 0.4,-1.9 0.3,-0.6 0.7,-1.1 1.3,-1.5 0.6,-0.4 1.2,-0.7 1.9,-0.8 0.8,-0.2 1.6,-0.3 2.4,-0.3 0.8,0 1.5,0 2.3,0.2 0.6,0.1 1.3,0.2 1.9,0.4 v -0.4 c 0.1,-1 -0.3,-2 -1.1,-2.8 -0.8,-0.7 -1.9,-1 -3,-0.9 -0.7,0 -1.5,0.1 -2.2,0.3 -0.7,0.2 -1.3,0.4 -1.9,0.7 l -0.6,-1.7 c 0.7,-0.3 1.5,-0.6 2.3,-0.8 0.9,-0.2 1.8,-0.3 2.7,-0.3 1.6,-0.1 3.2,0.4 4.4,1.5 1,1.1 1.5,2.5 1.4,4 v 8.4 h -2 v -2 c -0.5,0.7 -1.2,1.2 -1.9,1.6 -1.2,0.3 -2.2,0.6 -3.3,0.6 z m 0.4,-1.6 c 0.6,0 1.2,-0.1 1.8,-0.3 0.5,-0.2 1,-0.4 1.4,-0.8 0.4,-0.3 0.8,-0.7 1,-1.2 0.2,-0.5 0.4,-1 0.4,-1.5 v -1.3 c -0.5,-0.1 -1.1,-0.3 -1.8,-0.4 -0.7,-0.1 -1.5,-0.2 -2.2,-0.2 -1,-0.1 -2.1,0.2 -3,0.8 -0.6,0.5 -1,1.2 -1,2 v 0.1 c 0,0.4 0.1,0.8 0.3,1.2 0.2,0.3 0.4,0.6 0.8,0.9 0.3,0.2 0.7,0.4 1.1,0.5 0.4,0 0.8,0.1 1.2,0.2 z m -11.3,-17.7 h 2.3 v 2.2 h -2.3 z m 0.1,5.3 h 2 v 13.7 h -2 z m -9.1,14 c -1,0 -1.9,-0.2 -2.8,-0.6 -1.7,-0.7 -3,-2.1 -3.7,-3.8 -0.4,-0.9 -0.5,-1.8 -0.5,-2.7 V 96 c 0,-1.9 0.7,-3.7 2,-5 0.6,-0.7 1.4,-1.2 2.2,-1.6 0.9,-0.4 1.8,-0.6 2.8,-0.6 0.6,0 1.2,0.1 1.8,0.2 0.5,0.1 1,0.3 1.5,0.5 0.4,0.2 0.8,0.5 1.2,0.8 0.4,0.3 0.7,0.6 1,1 l -1.4,1.4 c -0.5,-0.6 -1.1,-1 -1.8,-1.4 -0.7,-0.4 -1.5,-0.6 -2.4,-0.6 -0.7,0 -1.3,0.1 -1.9,0.4 -0.6,0.3 -1.1,0.6 -1.5,1.1 -0.4,0.5 -0.8,1.1 -1,1.7 -0.3,0.7 -0.4,1.4 -0.4,2.1 v 0 c 0,0.7 0.1,1.4 0.4,2.1 0.2,0.6 0.6,1.2 1,1.7 0.9,1 2.2,1.6 3.6,1.6 0.8,0 1.6,-0.2 2.3,-0.6 0.7,-0.4 1.3,-0.9 1.8,-1.4 l 1.3,1.2 c -0.7,0.8 -1.5,1.4 -2.3,1.9 -1,0.5 -2.1,0.7 -3.2,0.7 z m -22.5,-14 h 2 v 2.4 c 0.5,-0.7 1.1,-1.4 1.8,-1.9 0.9,-0.6 1.9,-0.8 2.9,-0.8 0.8,0 1.5,0.1 2.2,0.4 0.6,0.3 1.2,0.6 1.6,1.1 0.4,0.5 0.8,1.1 1,1.7 0.2,0.7 0.4,1.5 0.4,2.2 v 8.5 h -2 v -8 c 0.1,-1.1 -0.3,-2.2 -1,-3 -0.7,-0.8 -1.7,-1.2 -2.8,-1.1 -0.6,0 -1.1,0.1 -1.6,0.3 -0.5,0.2 -0.9,0.5 -1.3,0.9 -0.4,0.4 -0.7,0.9 -0.9,1.4 -0.2,0.6 -0.3,1.1 -0.3,1.7 v 7.8 h -2 z m -14.4,7.6 c 0.1,0.7 0.2,1.3 0.5,1.9 0.5,1.1 1.4,1.9 2.6,2.3 0.6,0.2 1.1,0.3 1.7,0.3 0.8,0 1.7,-0.2 2.5,-0.5 0.7,-0.4 1.3,-0.8 1.9,-1.4 l 1.3,1.1 c -0.7,0.8 -1.5,1.4 -2.4,1.9 -1,0.5 -2.1,0.7 -3.3,0.7 -0.9,0 -1.8,-0.2 -2.6,-0.5 -0.8,-0.3 -1.6,-0.8 -2.2,-1.4 -0.6,-0.7 -1.1,-1.4 -1.5,-2.3 -0.4,-0.9 -0.6,-1.9 -0.5,-2.9 0,-1 0.2,-1.9 0.5,-2.8 0.3,-0.8 0.8,-1.6 1.3,-2.2 0.6,-0.6 1.3,-1.2 2.1,-1.5 1.7,-0.8 3.6,-0.8 5.3,0 0.8,0.4 1.5,0.9 2,1.6 0.5,0.7 1,1.4 1.2,2.3 0.3,0.9 0.4,1.9 0.4,2.8 v 0.3 c 0,0.1 0,0.3 0,0.4 z m 8.8,-1.6 c -0.1,-0.6 -0.2,-1.2 -0.4,-1.8 -0.2,-0.5 -0.5,-1 -0.9,-1.5 -0.4,-0.4 -0.8,-0.8 -1.3,-1 -0.6,-0.3 -1.2,-0.4 -1.8,-0.4 -0.6,0 -1.1,0.1 -1.6,0.3 -0.5,0.2 -1,0.6 -1.4,1 -0.4,0.4 -0.8,0.9 -1,1.5 -0.3,0.6 -0.4,1.2 -0.5,1.8 z m -20.8,-6 h 2 v 3.6 c 0.2,-0.6 0.6,-1.1 0.9,-1.6 0.4,-0.5 0.8,-0.9 1.3,-1.2 0.5,-0.3 1,-0.6 1.6,-0.8 0.6,-0.2 1.2,-0.3 1.8,-0.2 v 2.2 h -0.2 c -0.7,0 -1.4,0.1 -2.1,0.4 -0.7,0.3 -1.2,0.7 -1.7,1.2 -0.5,0.6 -0.9,1.3 -1.2,2 -0.3,0.9 -0.4,1.8 -0.4,2.7 v 5.4 h -2 z m -11.2,14 c -0.6,0 -1.3,-0.1 -1.9,-0.3 -0.6,-0.2 -1.1,-0.4 -1.6,-0.8 -0.5,-0.4 -0.9,-0.8 -1.1,-1.3 -0.3,-0.6 -0.5,-1.2 -0.4,-1.8 v -0.1 c 0,-0.7 0.1,-1.3 0.4,-1.9 0.3,-0.6 0.7,-1 1.2,-1.4 0.6,-0.4 1.2,-0.7 1.9,-0.8 0.8,-0.2 1.6,-0.3 2.4,-0.3 0.8,0 1.5,0 2.3,0.2 0.6,0.1 1.3,0.2 1.9,0.4 v -0.4 c 0.1,-1 -0.3,-2 -1.1,-2.8 -0.8,-0.7 -1.9,-1 -3,-0.9 -0.7,0 -1.5,0.1 -2.2,0.3 -0.7,0.2 -1.3,0.4 -1.9,0.7 l -0.6,-1.7 c 0.7,-0.3 1.5,-0.6 2.3,-0.8 0.9,-0.2 1.8,-0.3 2.7,-0.3 1.6,-0.1 3.2,0.4 4.4,1.5 1,1.1 1.5,2.5 1.4,4 v 8.4 h -2 v -2 c -0.5,0.7 -1.2,1.2 -1.9,1.6 -1.1,0.3 -2.2,0.5 -3.2,0.5 z m 0.4,-1.6 c 0.6,0 1.2,-0.1 1.8,-0.3 0.5,-0.2 1,-0.4 1.4,-0.8 0.4,-0.3 0.8,-0.7 1,-1.2 0.2,-0.5 0.4,-1 0.4,-1.5 v -1.3 c -0.5,-0.1 -1.1,-0.3 -1.8,-0.4 -0.7,-0.1 -1.5,-0.2 -2.2,-0.2 -1,-0.1 -2.1,0.2 -3,0.8 -0.6,0.5 -1,1.2 -1,2 v 0.1 c 0,0.4 0.1,0.8 0.3,1.2 0.2,0.3 0.4,0.6 0.8,0.9 0.3,0.2 0.7,0.4 1.1,0.5 0.4,0 0.8,0.1 1.2,0.2 z m -22,-12.4 h 2 V 92 c 0.3,-0.4 0.6,-0.8 0.9,-1.2 0.3,-0.4 0.7,-0.7 1.1,-1 0.4,-0.3 0.9,-0.5 1.4,-0.7 0.6,-0.2 1.1,-0.3 1.7,-0.2 1.7,0 3.3,0.7 4.5,1.9 0.6,0.6 1.1,1.4 1.5,2.2 0.4,1 0.6,2 0.6,3 v 0 c 0,1 -0.2,2 -0.6,3 -0.3,0.8 -0.8,1.6 -1.5,2.2 -0.6,0.6 -1.3,1.1 -2.1,1.4 -0.8,0.3 -1.6,0.5 -2.4,0.5 -0.6,0 -1.2,-0.1 -1.8,-0.2 -0.5,-0.1 -1,-0.4 -1.4,-0.6 -0.4,-0.3 -0.8,-0.6 -1.1,-0.9 -0.3,-0.3 -0.6,-0.7 -0.9,-1.1 v 6.8 h -2 z m 6.9,12.2 c 0.6,0 1.3,-0.1 1.9,-0.4 0.6,-0.2 1.1,-0.6 1.5,-1 0.4,-0.5 0.8,-1 1,-1.7 0.3,-0.7 0.4,-1.5 0.4,-2.2 V 96 c 0,-0.8 -0.1,-1.5 -0.4,-2.2 -0.2,-0.6 -0.6,-1.2 -1,-1.7 -0.4,-0.5 -1,-0.8 -1.5,-1.1 -0.6,-0.2 -1.2,-0.4 -1.9,-0.4 -0.6,0 -1.3,0.1 -1.8,0.4 -0.6,0.3 -1.1,0.6 -1.6,1.1 -0.5,0.5 -0.9,1 -1.1,1.7 -0.3,0.7 -0.4,1.4 -0.4,2.1 v 0 c 0,0.7 0.1,1.5 0.4,2.2 0.3,0.6 0.6,1.2 1.1,1.7 0.5,0.5 1,0.8 1.6,1.1 0.5,0.3 1.2,0.4 1.8,0.5 z m -15.6,1.8 c -1,0 -2,-0.2 -3,-0.5 -1,-0.3 -1.9,-0.8 -2.7,-1.5 l 1,-1.4 c 0.7,0.5 1.5,1 2.3,1.3 0.8,0.3 1.6,0.4 2.4,0.4 0.7,0 1.4,-0.2 2,-0.6 0.5,-0.4 0.8,-1 0.8,-1.6 v -0.1 c 0,-0.3 -0.1,-0.6 -0.3,-0.9 -0.2,-0.3 -0.5,-0.5 -0.8,-0.7 -0.3,-0.2 -0.7,-0.4 -1.1,-0.5 -0.4,-0.1 -0.8,-0.3 -1.3,-0.4 -0.5,-0.1 -1.1,-0.3 -1.6,-0.5 -0.5,-0.2 -1,-0.4 -1.5,-0.7 -0.4,-0.3 -0.8,-0.6 -1.1,-1.1 -0.3,-0.5 -0.4,-1 -0.4,-1.6 v -0.1 c 0,-0.6 0.1,-1.1 0.3,-1.6 0.2,-0.5 0.6,-0.9 1,-1.2 0.4,-0.4 0.9,-0.6 1.5,-0.8 0.6,-0.2 1.2,-0.3 1.9,-0.3 0.9,0 1.7,0.1 2.6,0.4 0.8,0.3 1.6,0.6 2.4,1.1 l -0.9,1.5 c -0.6,-0.4 -1.3,-0.7 -2,-1 -0.6,-0.2 -1.3,-0.3 -2,-0.4 -0.7,0 -1.4,0.2 -1.9,0.6 -0.4,0.3 -0.7,0.9 -0.7,1.4 v 0.1 c 0,0.3 0.1,0.6 0.3,0.8 0.2,0.3 0.5,0.5 0.8,0.6 0.4,0.2 0.7,0.4 1.1,0.5 l 1.3,0.4 c 0.5,0.2 1,0.3 1.6,0.5 0.5,0.2 1,0.4 1.4,0.7 0.4,0.3 0.7,0.7 1,1.1 0.3,0.5 0.4,1.1 0.3,1.6 v 0 c 0,0.6 -0.1,1.2 -0.4,1.7 -0.2,0.5 -0.6,0.9 -1,1.3 -0.5,0.4 -1,0.6 -1.5,0.8 -0.4,0.5 -1.1,0.6 -1.8,0.7 z m -20.8,-14 h 2 v 2.4 c 0.5,-0.7 1.1,-1.4 1.8,-1.9 0.9,-0.6 1.9,-0.8 2.9,-0.8 0.8,0 1.5,0.1 2.2,0.4 0.6,0.3 1.2,0.6 1.6,1.1 0.4,0.5 0.8,1.1 1,1.7 0.2,0.7 0.4,1.5 0.4,2.2 v 8.5 h -2 v -8 c 0,-1.1 -0.3,-2.2 -1,-3 -0.7,-0.8 -1.7,-1.2 -2.8,-1.1 -0.6,0 -1.1,0.1 -1.6,0.3 -0.5,0.2 -0.9,0.5 -1.3,0.9 -0.4,0.4 -0.7,0.9 -0.9,1.4 -0.2,0.6 -0.3,1.1 -0.3,1.7 v 7.8 h -2 z m -11.2,14 c -0.6,0 -1.3,-0.1 -1.9,-0.3 -0.6,-0.2 -1.1,-0.4 -1.6,-0.8 -0.5,-0.4 -0.9,-0.8 -1.1,-1.3 -0.3,-0.6 -0.5,-1.2 -0.4,-1.8 v -0.1 c 0,-0.7 0.1,-1.3 0.4,-1.9 0.3,-0.6 0.7,-1 1.2,-1.4 0.6,-0.4 1.2,-0.7 1.9,-0.8 0.8,-0.2 1.6,-0.3 2.4,-0.3 0.8,0 1.5,0 2.3,0.2 0.6,0.1 1.3,0.2 1.9,0.4 v -0.4 c 0.1,-1 -0.3,-2.1 -1,-2.8 -0.8,-0.7 -1.9,-1 -3,-0.9 -0.7,0 -1.5,0.1 -2.2,0.3 -0.7,0.2 -1.3,0.4 -1.9,0.7 l -0.6,-1.7 c 0.7,-0.3 1.5,-0.6 2.3,-0.8 0.9,-0.2 1.8,-0.3 2.7,-0.3 1.6,-0.1 3.2,0.4 4.4,1.5 1,1.1 1.5,2.5 1.4,4 v 8.4 h -2 v -2 c -0.5,0.7 -1.2,1.2 -1.9,1.6 -1.2,0.2 -2.2,0.5 -3.3,0.5 z m 0.4,-1.7 c 0.6,0 1.2,-0.1 1.8,-0.3 0.5,-0.2 1,-0.4 1.4,-0.8 0.4,-0.3 0.8,-0.7 1,-1.2 0.2,-0.5 0.4,-1 0.4,-1.5 v -1.3 c -0.5,-0.1 -1.1,-0.3 -1.7,-0.4 -0.7,-0.1 -1.5,-0.2 -2.2,-0.2 -1.1,-0.1 -2.1,0.2 -3,0.8 -0.7,0.5 -1,1.2 -1,2 v 0.1 c 0,0.4 0.1,0.8 0.3,1.2 0.2,0.3 0.4,0.6 0.8,0.9 0.3,0.2 0.7,0.4 1.1,0.5 0.2,0.1 0.7,0.2 1.1,0.2 z m -15.2,-12.3 h 2 v 3.6 c 0.2,-0.6 0.6,-1.1 0.9,-1.6 0.4,-0.5 0.8,-0.9 1.3,-1.2 0.5,-0.3 1,-0.6 1.6,-0.8 0.6,-0.2 1.2,-0.3 1.8,-0.2 v 2.2 h -0.2 c -0.7,0 -1.4,0.1 -2.1,0.4 -0.7,0.3 -1.2,0.7 -1.7,1.2 -0.5,0.6 -0.9,1.3 -1.2,2 -0.3,0.9 -0.4,1.8 -0.4,2.7 v 5.4 h -2 z m -11.9,-2.9 h -6.2 v -1.9 h 14.5 v 1.9 h -6.2 v 16.6 h -2.1 z"
     id="path138"
     inkscape:connector-curvature="0"
     style="fill:#ffffff" /><path
     class="st0"
     d="m 565.29468,103.1 c -0.6,0 -1.3,-0.1 -1.9,-0.3 -0.6,-0.2 -1.1,-0.4 -1.6,-0.8 -0.5,-0.4 -0.9,-0.8 -1.2,-1.3 -0.3,-0.6 -0.5,-1.2 -0.4,-1.8 v -0.1 c 0,-0.7 0.1,-1.3 0.4,-1.9 0.3,-0.6 0.7,-1 1.2,-1.4 0.6,-0.4 1.2,-0.7 1.8,-0.8 0.8,-0.2 1.6,-0.3 2.4,-0.3 0.8,0 1.5,0 2.3,0.2 0.6,0.1 1.3,0.2 1.9,0.4 v -0.4 c 0.1,-1 -0.3,-2 -1.1,-2.8 -0.8,-0.7 -1.9,-1 -3,-0.9 -0.7,0 -1.5,0.1 -2.2,0.3 -0.7,0.2 -1.3,0.4 -1.9,0.7 l -0.6,-1.7 c 0.7,-0.3 1.5,-0.6 2.3,-0.8 0.9,-0.2 1.8,-0.3 2.7,-0.3 1.6,-0.1 3.2,0.4 4.4,1.5 1,1.1 1.5,2.5 1.4,4 v 8.4 h -2 v -2 c -0.5,0.7 -1.2,1.2 -1.9,1.6 -1,0.3 -2,0.6 -3,0.5 m 0.3,-1.6 c 0.6,0 1.2,-0.1 1.8,-0.3 0.5,-0.2 1,-0.4 1.4,-0.8 0.4,-0.3 0.8,-0.7 1,-1.2 0.2,-0.5 0.4,-1 0.4,-1.5 v -1.3 c -0.5,-0.1 -1.1,-0.3 -1.7,-0.4 -0.7,-0.1 -1.5,-0.2 -2.2,-0.2 -1,-0.1 -2.1,0.2 -3,0.8 -0.7,0.5 -1,1.2 -1,2 v 0.1 c 0,0.4 0.1,0.8 0.3,1.2 0.2,0.3 0.4,0.6 0.8,0.9 0.3,0.2 0.7,0.4 1.1,0.5 0.3,0.1 0.8,0.2 1.1,0.2 z"
     id="path140"
     inkscape:connector-curvature="0"
     style="fill:#ffffff" /><path
     class="st4"
     d="m 66.094682,26.6 c -0.6,3.6 -2.2,12.8 -2.2,12.8 l 0.5,-0.5 7.4,-17.1 c 1.7,0.4 2.7,2 2.3,3.7 0,0.2 -0.1,0.4 -0.2,0.5 -1.3,3.4 -4.7,11.8 -4.7,11.8 0,0 -0.2,0.2 0.3,0 0.5,-0.2 2.8,-2.1 2.8,-2.1 0.6,-0.4 1.4,-0.3 1.9,0.2 1,0.8 5.7,4 5.7,4 0,0 1.4,0.9 1.4,1.7 v 4.9 h -1.5 c -0.8,-0.1 -1.6,-0.6 -2,-1.3 -0.7,-2.6 -3.3,-4.2 -6,-3.6 -2.7,0.6 -4.2,3.3 -3.6,6 0.6,2.7 3.3,4.2 6,3.6 1.4,-0.4 2.6,-1.3 3.2,-2.6 0.4,-0.9 1.3,-1.5 2.3,-1.5 h 1.5 V 52 c 0,0 0.1,2.2 -1.5,2.8 -2.7,1.1 -11.2,4.6 -11.2,4.6 -0.7,0.2 -1.1,0.9 -1,1.6 v 10.5 c 15,-0.5 26.6,-12.8 26.2,-27.5 -0.4,-14.7 -12.7,-26.3 -27.5,-25.9 -14.7,0.4 -26.3,12.7 -25.9,27.5 0.3,10.4 6.6,19.7 16.1,23.8 V 28.5 c 0,0 3.1,-0.7 3.1,3 0,3.7 0.2,7.7 0.2,7.7 0,0 0,0.1 0.1,0 0.1,-0.1 0.8,-4 0.8,-4 l 2.6,-12.3 c 0.2,0 3.4,0 2.9,3.7"
     id="path142"
     inkscape:connector-curvature="0"
     style="fill:#ea2381" /></svg>